<svg width="16" height="16" viewBox="0 0 16 16" fill="none" xmlns="http://www.w3.org/2000/svg">
<path d="M8.0001 4.19843L7.46234 3.60883C6.20005 2.22484 3.88548 2.70244 3.04995 4.44243C2.65769 5.26083 2.56919 6.44242 3.28546 7.95042C3.97548 9.40241 5.41103 11.1416 8.0001 13.036C10.5892 11.1416 12.024 9.40241 12.7147 7.95042C13.431 6.44162 13.3433 5.26083 12.9503 4.44243C12.1147 2.70244 9.80016 2.22404 8.53787 3.60803L8.0001 4.19843ZM8.0001 14C-3.5 5.89443 4.45925 -0.431953 7.8681 2.91444C7.9131 2.95844 7.95735 3.00404 8.0001 3.05124C8.04242 3.00408 8.08646 2.95871 8.13211 2.91524C11.5402 -0.433553 19.5002 5.89363 8.0001 14Z" fill="#FF0000"/>
</svg>
